<?xml version="1.0" encoding="UTF-8" standalone="no"?>
<!-- Created with Inkscape (http://www.inkscape.org/) -->

<svg
   width="113.74397mm"
   height="57.027431mm"
   viewBox="0 0 113.74398 57.027431"
   version="1.1"
   id="svg5"
   inkscape:version="1.2 (1:1.2+202206011327+fc4e4096c5)"
   sodipodi:docname="design.svg"
   xmlns:inkscape="http://www.inkscape.org/namespaces/inkscape"
   xmlns:sodipodi="http://sodipodi.sourceforge.net/DTD/sodipodi-0.dtd"
   xmlns="http://www.w3.org/2000/svg"
   xmlns:svg="http://www.w3.org/2000/svg">
  <sodipodi:namedview
     id="namedview7"
     pagecolor="#ffffff"
     bordercolor="#000000"
     borderopacity="0.25"
     inkscape:showpageshadow="2"
     inkscape:pageopacity="0.0"
     inkscape:pagecheckerboard="0"
     inkscape:deskcolor="#d1d1d1"
     inkscape:document-units="mm"
     showgrid="false"
     inkscape:zoom="1.5607744"
     inkscape:cx="384.74491"
     inkscape:cy="204.06537"
     inkscape:window-width="1848"
     inkscape:window-height="1016"
     inkscape:window-x="72"
     inkscape:window-y="27"
     inkscape:window-maximized="1"
     inkscape:current-layer="layer1" />
  <defs
     id="defs2">
    <marker
       style="overflow:visible"
       id="Arrow2"
       refX="0"
       refY="0"
       orient="auto-start-reverse"
       inkscape:stockid="Arrow2"
       markerWidth="7.6999998"
       markerHeight="5.5999999"
       viewBox="0 0 7.7 5.6"
       inkscape:isstock="true"
       inkscape:collect="always"
       preserveAspectRatio="xMidYMid">
      <path
         transform="scale(0.7)"
         d="M -2,-4 9,0 -2,4 c 2,-2.33 2,-5.66 0,-8 z"
         style="fill:context-stroke;fill-rule:evenodd;stroke:none"
         id="arrow2L" />
    </marker>
    <marker
       style="overflow:visible"
       id="Arrow2-3"
       refX="0"
       refY="0"
       orient="auto-start-reverse"
       inkscape:stockid="Arrow2"
       markerWidth="7.6999998"
       markerHeight="5.5999999"
       viewBox="0 0 7.7 5.6"
       inkscape:isstock="true"
       inkscape:collect="always"
       preserveAspectRatio="xMidYMid">
      <path
         transform="scale(0.7)"
         d="M -2,-4 9,0 -2,4 c 2,-2.33 2,-5.66 0,-8 z"
         style="fill:context-stroke;fill-rule:evenodd;stroke:none"
         id="arrow2L-1" />
    </marker>
    <marker
       style="overflow:visible"
       id="Arrow2-3-4"
       refX="0"
       refY="0"
       orient="auto-start-reverse"
       inkscape:stockid="Arrow2"
       markerWidth="7.6999998"
       markerHeight="5.5999999"
       viewBox="0 0 7.7 5.6"
       inkscape:isstock="true"
       inkscape:collect="always"
       preserveAspectRatio="xMidYMid">
      <path
         transform="scale(0.7)"
         d="M -2,-4 9,0 -2,4 c 2,-2.33 2,-5.66 0,-8 z"
         style="fill:context-stroke;fill-rule:evenodd;stroke:none"
         id="arrow2L-1-7" />
    </marker>
    <marker
       style="overflow:visible"
       id="Arrow2-0"
       refX="0"
       refY="0"
       orient="auto-start-reverse"
       inkscape:stockid="Arrow2"
       markerWidth="7.6999998"
       markerHeight="5.5999999"
       viewBox="0 0 7.7 5.6"
       inkscape:isstock="true"
       inkscape:collect="always"
       preserveAspectRatio="xMidYMid">
      <path
         transform="scale(0.7)"
         d="M -2,-4 9,0 -2,4 c 2,-2.33 2,-5.66 0,-8 z"
         style="fill:context-stroke;fill-rule:evenodd;stroke:none"
         id="arrow2L-3" />
    </marker>
    <marker
       style="overflow:visible"
       id="Arrow2-3-0"
       refX="0"
       refY="0"
       orient="auto-start-reverse"
       inkscape:stockid="Arrow2"
       markerWidth="7.6999998"
       markerHeight="5.5999999"
       viewBox="0 0 7.7 5.6"
       inkscape:isstock="true"
       inkscape:collect="always"
       preserveAspectRatio="xMidYMid">
      <path
         transform="scale(0.7)"
         d="M -2,-4 9,0 -2,4 c 2,-2.33 2,-5.66 0,-8 z"
         style="fill:context-stroke;fill-rule:evenodd;stroke:none"
         id="arrow2L-1-6" />
    </marker>
  </defs>
  <g
     inkscape:label="Layer 1"
     inkscape:groupmode="layer"
     id="layer1"
     transform="translate(-44.401245,-86.028183)">
    <rect
       style="fill:#ffffff;fill-opacity:1;stroke:none;stroke-width:1.87832;stroke-dasharray:5.63491, 1.87832;stroke-dashoffset:0;stroke-opacity:1"
       id="rect6810-3-5-1-2-1-1"
       width="113.74397"
       height="57.027431"
       x="44.401245"
       y="86.028183" />
    <rect
       style="fill:#dedede;fill-opacity:1;stroke:#000000;stroke-width:0.225871;stroke-opacity:1"
       id="rect606"
       width="32.83279"
       height="45.039345"
       x="50.306484"
       y="95.572922"
       ry="4.1414218" />
    <text
       xml:space="preserve"
       style="font-size:3.52778px;font-family:sans-serif;-inkscape-font-specification:sans-serif;text-align:end;text-anchor:end;fill:#dedede;fill-opacity:1;stroke:#000000;stroke-width:0.219;stroke-opacity:1"
       x="76.979538"
       y="139.75146"
       id="text2101"><tspan
         sodipodi:role="line"
         id="tspan2099"
         style="font-weight:bold;font-size:3.52778px;fill:#000000;fill-opacity:1;stroke:none;stroke-width:0.219"
         x="76.979538"
         y="139.75146">x86 Server</tspan></text>
    <rect
       style="fill:#ffffff;fill-opacity:1;stroke:#000000;stroke-width:0.293113;stroke-opacity:1"
       id="rect3769"
       width="35.014866"
       height="18.719313"
       x="53.620918"
       y="96.829903"
       ry="2.8651443" />
    <rect
       style="fill:#ffffff;fill-opacity:1;stroke:#000000;stroke-width:0.188917;stroke-dasharray:0.566751, 0.566751;stroke-dashoffset:0;stroke-opacity:1"
       id="rect6810"
       width="17.187826"
       height="9.411582"
       x="55.307545"
       y="98.998909" />
    <rect
       style="fill:#666666;fill-opacity:1;stroke:#000000;stroke-width:0.198442;stroke-dasharray:none;stroke-dashoffset:0;stroke-opacity:1"
       id="rect6810-3"
       width="11.807064"
       height="6.146194"
       x="74.370735"
       y="98.525528" />
    <text
       xml:space="preserve"
       style="font-size:3.52777px;font-family:sans-serif;-inkscape-font-specification:sans-serif;text-align:end;text-anchor:end;fill:#ffffff;fill-opacity:1;stroke:#000000;stroke-width:0.219;stroke-opacity:1"
       x="63.78125"
       y="102.73614"
       id="text6814"><tspan
         sodipodi:role="line"
         id="tspan6812"
         style="text-align:center;text-anchor:middle;fill:#000000;fill-opacity:1;stroke:none;stroke-width:0.219"
         x="63.78125"
         y="102.73614">P4Mite </tspan><tspan
         sodipodi:role="line"
         style="text-align:center;text-anchor:middle;fill:#000000;fill-opacity:1;stroke:none;stroke-width:0.219"
         x="63.78125"
         y="107.14585"
         id="tspan6816">Agent</tspan></text>
    <path
       style="fill:#000000;stroke-width:0.0171361"
       d="m 79.506593,114.61816 -0.06653,-0.0665 v -0.32962 -0.32961 l 0.06653,-0.0665 c 0.05827,-0.0583 0.07645,-0.0665 0.146508,-0.0665 0.09537,0 0.164194,0.0322 0.208537,0.0977 0.0476,0.0702 0.05851,0.57151 0.01494,0.68563 -0.03702,0.0969 -0.106708,0.14191 -0.22004,0.142 -0.07408,5e-5 -0.09085,-0.007 -0.149941,-0.0665 z m 1.140195,0.0342 c -0.09414,-0.0574 -0.110014,-0.11935 -0.110014,-0.42922 0,-0.2018 0.0067,-0.29236 0.02467,-0.33547 0.03311,-0.0793 0.11698,-0.1282 0.219768,-0.12828 0.0691,-6e-5 0.09148,0.009 0.145657,0.0585 l 0.06401,0.0586 0.0053,0.32292 c 0.0051,0.31445 0.0042,0.32449 -0.03478,0.38238 -0.02204,0.0327 -0.05912,0.0691 -0.08239,0.0809 -0.06201,0.0314 -0.171753,0.0265 -0.232194,-0.0104 z m 1.07036,-0.0342 -0.06653,-0.0665 v -0.32962 -0.32961 l 0.06653,-0.0665 c 0.05827,-0.0583 0.07645,-0.0665 0.146508,-0.0665 0.09537,0 0.164194,0.0322 0.208537,0.0977 0.0476,0.0702 0.05851,0.57151 0.01494,0.68563 -0.03702,0.0969 -0.106709,0.14191 -0.220041,0.142 -0.07408,5e-5 -0.09085,-0.007 -0.149941,-0.0665 z m 1.123059,0.0342 c -0.09414,-0.0574 -0.110013,-0.11935 -0.110013,-0.42922 0,-0.2018 0.0067,-0.29236 0.02467,-0.33547 0.03311,-0.0793 0.116979,-0.1282 0.219768,-0.12828 0.0691,-6e-5 0.09148,0.009 0.145656,0.0585 l 0.06401,0.0586 0.0053,0.32292 c 0.0051,0.31445 0.0042,0.32449 -0.03479,0.38238 -0.02204,0.0327 -0.05911,0.0691 -0.08239,0.0809 -0.06201,0.0314 -0.171753,0.0265 -0.232195,-0.0104 z m -3.698408,-1.27101 c -0.123076,-0.0206 -0.290594,-0.1097 -0.386362,-0.20547 -0.100905,-0.1009 -0.183682,-0.26195 -0.20657,-0.40188 -0.01037,-0.0634 -0.01674,-0.92718 -0.01662,-2.2534 2.14e-4,-2.3443 -0.002,-2.288 0.09735,-2.4714 0.102292,-0.18882 0.303962,-0.33327 0.521397,-0.37347 0.06289,-0.0116 0.851105,-0.016 2.321306,-0.0129 l 2.226081,0.005 0.09629,0.0389 c 0.20948,0.0847 0.36075,0.23664 0.447946,0.44982 l 0.03839,0.0939 0.0047,2.2175 c 0.003,1.45673 -0.0014,2.2504 -0.01286,2.31338 -0.03873,0.21195 -0.188427,0.41978 -0.375859,0.52179 -0.180834,0.0984 -0.124242,0.0963 -2.494807,0.0944 -1.196956,-0.001 -2.214113,-0.008 -2.260348,-0.0158 z m 1.121897,-2.1172 c 0.114317,-0.0513 0.212909,-0.14799 0.268927,-0.26374 0.06797,-0.14043 0.06339,-0.15311 -0.07202,-0.1993 -0.06545,-0.0224 -0.127144,-0.0405 -0.137089,-0.0404 -0.0099,1.3e-4 -0.03963,0.0465 -0.06596,0.10308 -0.0641,0.13775 -0.145895,0.19377 -0.28294,0.19377 -0.108956,0 -0.157332,-0.0195 -0.238573,-0.0964 -0.08398,-0.0795 -0.115226,-0.19256 -0.114616,-0.4148 5.37e-4,-0.19578 0.03054,-0.3063 0.106319,-0.39163 0.07615,-0.0858 0.268946,-0.12239 0.386258,-0.0734 0.06432,0.0269 0.143794,0.11434 0.15902,0.17501 0.0057,0.0229 0.01537,0.0415 0.02142,0.0414 0.02657,-3.3e-4 0.27887,-0.065 0.287586,-0.0737 0.01876,-0.0187 -0.07586,-0.19556 -0.137845,-0.25754 -0.111137,-0.11114 -0.218285,-0.15391 -0.406291,-0.16216 -0.11871,-0.005 -0.191145,4.5e-4 -0.25929,0.0203 -0.193046,0.0561 -0.356825,0.21536 -0.425062,0.41328 -0.04381,0.12706 -0.06108,0.3762 -0.03552,0.51227 0.05305,0.28233 0.254836,0.50571 0.505122,0.55917 0.124116,0.0265 0.327277,0.006 0.440553,-0.0452 z m 2.818879,0.0198 c 0.124317,-0.0517 0.19357,-0.11241 0.242916,-0.21289 l 0.04731,-0.0963 0.0055,-0.56977 0.0055,-0.56978 H 83.22837 83.072915 v 0.53725 c 0,0.52967 -5.44e-4,0.53807 -0.03878,0.59479 -0.06879,0.10208 -0.274519,0.12827 -0.40141,0.0511 -0.102516,-0.0623 -0.10817,-0.0972 -0.10817,-0.66736 v -0.51577 h -0.164257 -0.164263 l 0.0076,0.5355 c 0.0049,0.34529 0.01494,0.55985 0.0282,0.60404 0.04917,0.16389 0.210496,0.30164 0.392095,0.33483 0.118988,0.0217 0.379808,0.007 0.458606,-0.0256 z m -1.946038,-0.25594 v -0.28088 l 0.252757,-0.007 c 0.27808,-0.008 0.331061,-0.0221 0.439227,-0.11701 0.08437,-0.0741 0.132332,-0.1718 0.143214,-0.29181 0.01874,-0.20667 -0.06198,-0.37198 -0.220094,-0.45078 -0.09042,-0.045 -0.0915,-0.0451 -0.507084,-0.0451 h -0.416469 v 0.73685 0.73685 h 0.154225 0.154224 z m 0,-0.73016 v -0.20563 H 81.3419 c 0.202688,0 0.206092,5.6e-4 0.261325,0.05 0.04924,0.044 0.05596,0.0604 0.05596,0.13676 0,0.15955 -0.117195,0.22451 -0.405037,0.22451 h -0.117614 z m -3.799095,2.10901 c -0.161632,-0.10024 -0.137458,-0.34707 0.04146,-0.42331 0.03892,-0.0166 0.134765,-0.0235 0.325854,-0.0235 0.321168,0 0.366175,0.0148 0.429753,0.14099 0.05054,0.10034 0.03804,0.18292 -0.04073,0.26892 l -0.05617,0.0613 -0.322655,0.005 c -0.29684,0.005 -0.327046,0.002 -0.377517,-0.0292 z m 7.353436,0.0164 c -0.05528,-0.0223 -0.121614,-0.11145 -0.134622,-0.18079 -0.01623,-0.0865 0.04563,-0.20869 0.127184,-0.25125 0.08659,-0.0452 0.57889,-0.046 0.668233,-0.001 0.126362,0.0635 0.175321,0.22465 0.103852,0.34186 -0.05946,0.0975 -0.102129,0.10806 -0.432529,0.10685 -0.163046,-5.7e-4 -0.312499,-0.008 -0.332118,-0.0155 z m -7.323938,-1.09298 c -0.16894,-0.0849 -0.184252,-0.33488 -0.02648,-0.43239 0.05044,-0.0311 0.08496,-0.0345 0.35375,-0.0345 0.347746,7e-5 0.386569,0.0129 0.445857,0.1469 0.05427,0.12269 0.01208,0.24776 -0.105948,0.3141 -0.05736,0.0322 -0.0915,0.0359 -0.335697,0.0359 -0.224608,-2e-5 -0.282207,-0.005 -0.331479,-0.03 z m 7.316768,-0.003 c -0.162042,-0.0862 -0.170128,-0.33354 -0.01402,-0.42872 0.0513,-0.0313 0.08596,-0.0346 0.354717,-0.0347 0.268792,-5e-5 0.303312,0.003 0.353749,0.0345 0.157769,0.0975 0.142457,0.34752 -0.02648,0.43239 -0.09002,0.0452 -0.581289,0.0427 -0.667966,-0.003 z m -7.342814,-1.11445 c -0.158047,-0.10401 -0.143381,-0.34775 0.02604,-0.43288 0.09125,-0.0458 0.573672,-0.044 0.664365,0.003 0.11747,0.0603 0.163302,0.19405 0.108759,0.31736 -0.05937,0.13422 -0.09787,0.14683 -0.44788,0.14678 -0.26975,-6e-5 -0.305047,-0.003 -0.35129,-0.0339 z m 7.328796,-5.6e-4 c -0.07303,-0.0445 -0.130161,-0.16726 -0.11383,-0.24452 0.01792,-0.0848 0.07121,-0.15984 0.134992,-0.19011 0.0457,-0.0217 0.115646,-0.0275 0.329599,-0.0275 0.307513,3e-5 0.360379,0.0147 0.431281,0.11992 0.07404,0.10985 0.03272,0.27944 -0.08523,0.34984 -0.03684,0.022 -0.101952,0.0272 -0.342722,0.0271 -0.268132,-5e-5 -0.302805,-0.003 -0.354095,-0.0347 z m -7.30275,-1.09194 c -0.126362,-0.0635 -0.175321,-0.22465 -0.103852,-0.34186 0.06174,-0.10125 0.102819,-0.11066 0.457329,-0.1047 l 0.317198,0.005 0.05616,0.0613 c 0.07876,0.086 0.09127,0.16858 0.04073,0.26892 -0.06374,0.12655 -0.108182,0.141 -0.433487,0.14097 -0.227083,-2e-5 -0.284736,-0.005 -0.334079,-0.03 z m 7.3165,-10e-4 c -0.03841,-0.02 -0.07385,-0.0592 -0.09933,-0.10983 -0.05308,-0.10539 -0.03864,-0.18678 0.04874,-0.27455 l 0.06397,-0.0643 h 0.311317 c 0.346362,0 0.387662,0.01 0.447397,0.10794 0.07147,0.11721 0.02251,0.27837 -0.103852,0.34186 -0.08934,0.0449 -0.581644,0.0441 -0.668233,-0.001 z m -5.121341,-1.77939 c -0.110833,-0.0564 -0.121906,-0.0966 -0.121906,-0.44286 0,-0.27921 0.0033,-0.31383 0.03458,-0.36517 0.06325,-0.10375 0.20802,-0.13514 0.309761,-0.0672 0.103446,0.0691 0.118149,0.12291 0.118149,0.43235 0,0.2272 -0.0051,0.28424 -0.02996,0.33294 -0.06042,0.11848 -0.198025,0.16718 -0.310626,0.10992 z m 1.112982,-0.002 c -0.118883,-0.0606 -0.1291,-0.0923 -0.135178,-0.41895 -0.0059,-0.3167 0.0015,-0.35592 0.08188,-0.43291 0.09597,-0.0919 0.273525,-0.0684 0.342949,0.0455 0.03128,0.0513 0.03459,0.086 0.03465,0.36315 7.1e-5,0.3451 -0.01322,0.39173 -0.127032,0.44573 -0.07452,0.0354 -0.124277,0.0347 -0.197271,-0.002 z m 1.097574,0.002 c -0.110597,-0.0562 -0.121899,-0.097 -0.121971,-0.43943 -7.1e-5,-0.33951 0.01021,-0.38154 0.107868,-0.44109 0.112668,-0.0687 0.262036,-0.0209 0.324728,0.10385 0.02479,0.0493 0.02996,0.10694 0.02996,0.33381 0,0.2272 -0.0051,0.28424 -0.02996,0.33294 -0.06042,0.11848 -0.198024,0.16718 -0.310625,0.10992 z m 1.095845,-0.002 c -0.118883,-0.0606 -0.1291,-0.0923 -0.135178,-0.41895 -0.0059,-0.3167 0.0015,-0.35592 0.08188,-0.43291 0.09597,-0.0919 0.273526,-0.0684 0.34295,0.0455 0.03127,0.0513 0.03459,0.086 0.03465,0.36315 7.1e-5,0.3451 -0.01322,0.39173 -0.127032,0.44573 -0.07452,0.0354 -0.124277,0.0347 -0.197272,-0.002 z"
       id="path9584" />
    <text
       xml:space="preserve"
       style="font-size:3.52777px;font-family:sans-serif;-inkscape-font-specification:sans-serif;text-align:center;text-anchor:middle;fill:#000000;fill-opacity:1;stroke:none;stroke-width:0.206;stroke-dasharray:0.618001, 0.618001;stroke-dashoffset:0;stroke-opacity:1"
       x="80.335999"
       y="102.5654"
       id="text11472"><tspan
         sodipodi:role="line"
         id="tspan11470"
         style="fill:#ffffff;stroke-width:0.206"
         x="80.335999"
         y="102.5654">App</tspan></text>
    <path
       style="fill:#ffffff;fill-opacity:1;stroke:#494949;stroke-width:0.244422;stroke-dasharray:0.977688, 0.244422;stroke-dashoffset:0;stroke-opacity:1;marker-start:url(#Arrow2)"
       d="m 90.385373,107.19784 c 5.921677,-0.34996 8.138829,9.43025 15.705387,8.60522"
       id="path33494"
       sodipodi:nodetypes="cc" />
    <rect
       style="fill:#e0e0e0;fill-opacity:1;stroke:#000000;stroke-width:0.313456;stroke-dasharray:none;stroke-dashoffset:0;stroke-opacity:1"
       id="rect19239"
       width="25.997395"
       height="17.801455"
       x="105.97132"
       y="107.74274"
       ry="4.501647" />
    <text
       xml:space="preserve"
       style="font-size:3.52777px;font-family:sans-serif;-inkscape-font-specification:sans-serif;text-align:center;text-anchor:middle;fill:#e0e0e0;fill-opacity:1;stroke:#000000;stroke-width:0.206;stroke-dasharray:0.618001, 0.618001;stroke-dashoffset:0;stroke-opacity:1"
       x="119.10831"
       y="124.29546"
       id="text19347"><tspan
         sodipodi:role="line"
         id="tspan19345"
         style="font-weight:bold;fill:#000000;fill-opacity:1;stroke:none;stroke-width:0.206"
         x="119.10831"
         y="124.29546">P4 Switch</tspan></text>
    <rect
       style="fill:#ffffff;fill-opacity:1;stroke:#000000;stroke-width:0.23679;stroke-dasharray:none;stroke-dashoffset:0;stroke-opacity:1"
       id="rect6810-3-5-1"
       width="21.648279"
       height="4.7729034"
       x="108.36539"
       y="116.05548" />
    <rect
       style="fill:#ffffff;fill-opacity:1;stroke:#000000;stroke-width:0.237;stroke-dasharray:0.711, 0.237;stroke-dashoffset:0;stroke-opacity:1"
       id="rect6810-3-5-1-2"
       width="21.648279"
       height="4.7729034"
       x="108.27293"
       y="110.23399" />
    <rect
       style="fill:#ffffff;fill-opacity:1;stroke:#000000;stroke-width:0.318995;stroke-dasharray:0.95698, 0.318995;stroke-dashoffset:0;stroke-opacity:1"
       id="rect6810-3-5-1-2-1"
       width="21.360287"
       height="8.763236"
       x="114.96762"
       y="90.62159" />
    <text
       xml:space="preserve"
       style="font-size:3.52777px;font-family:sans-serif;-inkscape-font-specification:sans-serif;text-align:center;text-anchor:middle;fill:#000000;fill-opacity:1;stroke:none;stroke-width:0.206;stroke-dasharray:0.618001, 0.618001;stroke-dashoffset:0;stroke-opacity:1"
       x="119.16373"
       y="119.5922"
       id="text20109"><tspan
         sodipodi:role="line"
         id="tspan20107"
         style="stroke-width:0.206"
         x="119.16373"
         y="119.5922">Forwarding</tspan></text>
    <text
       xml:space="preserve"
       style="font-size:3.52777px;font-family:sans-serif;-inkscape-font-specification:sans-serif;text-align:center;text-anchor:middle;fill:#000000;fill-opacity:1;stroke:none;stroke-width:0.206;stroke-dasharray:0.618001, 0.618001;stroke-dashoffset:0;stroke-opacity:1"
       x="118.77967"
       y="113.80577"
       id="text20109-7"><tspan
         sodipodi:role="line"
         id="tspan20107-0"
         style="stroke-width:0.206"
         x="118.77967"
         y="113.80577">P4Mite+</tspan></text>
    <path
       style="fill:#000000;fill-opacity:1;stroke:none;stroke-width:0.206;stroke-dasharray:none;stroke-dashoffset:0;stroke-opacity:1"
       d="m 64.346933,108.39632 v 2.73493"
       id="path21703" />
    <g
       id="g47876">
      <path
         style="fill:#424242;fill-opacity:1;stroke:#494949;stroke-width:0.195223;stroke-dasharray:0.78089201,0.78089201;stroke-dashoffset:0;stroke-opacity:1"
         d="m 63.452964,108.67707 v 2.63006"
         id="path21820" />
      <path
         style="fill:#424242;fill-opacity:1;stroke:#494949;stroke-width:0.206;stroke-dasharray:0.618,0.618;stroke-dashoffset:0;stroke-opacity:1"
         d="M 63.367742,111.20557 H 75.589743"
         id="path21824" />
    </g>
    <text
       xml:space="preserve"
       style="font-size:2.11667px;font-family:sans-serif;-inkscape-font-specification:sans-serif;text-align:center;text-anchor:middle;fill:#000000;fill-opacity:1;stroke:#000000;stroke-width:0.206;stroke-dasharray:none;stroke-dashoffset:0;stroke-opacity:1"
       x="63.830521"
       y="113.33463"
       id="text22554"><tspan
         sodipodi:role="line"
         id="tspan22552"
         style="font-style:italic;font-size:2.11667px;stroke:none;stroke-width:0.206"
         x="63.830521"
         y="113.33463">Monitoring</tspan></text>
    <path
       style="fill:#000000;stroke-width:0.0471447"
       d="m 148.99423,120.1142 c -0.0656,-0.10618 0.0396,-0.22282 0.33023,-0.36615 l 0.30648,-0.15114 v -0.40117 -0.40116 h 1.38887 1.38886 l 0.0137,0.38577 0.0137,0.38579 0.24607,0.14459 c 0.34746,0.20418 0.42184,0.28562 0.3452,0.37796 -0.053,0.0639 -0.30885,0.0731 -2.03217,0.0731 -1.27516,0 -1.98191,-0.0168 -2.00093,-0.0476 z m -2.31178,-2.02112 c -0.25778,-0.1171 -0.42715,-0.33172 -0.48887,-0.6195 -0.0705,-0.32862 -0.0705,-5.27971 0,-5.60834 0.0601,-0.28042 0.21843,-0.48688 0.47275,-0.61663 0.17792,-0.0908 0.28243,-0.0927 4.42131,-0.0804 l 4.2391,0.0125 0.18115,0.14644 c 0.0996,0.0805 0.22359,0.21842 0.27544,0.30643 0.0915,0.15521 0.0943,0.24478 0.0943,2.9887 0,1.55577 -0.0159,2.88539 -0.0353,2.95469 -0.053,0.18925 -0.26721,0.41886 -0.4813,0.51611 -0.18023,0.0819 -0.41489,0.0866 -4.33927,0.0866 -3.92437,0 -4.15903,-0.005 -4.33926,-0.0866 z m 4.78714,-0.42998 v -0.33001 h -0.33001 -0.33001 v 0.33001 0.33001 h 0.33001 0.33001 z m 3.47437,-0.79939 c 0.32967,-0.20101 0.31782,-0.10738 0.31937,-2.52217 0.002,-2.41762 0.0134,-2.32351 -0.31937,-2.52646 -0.14601,-0.089 -0.26694,-0.0919 -3.9128,-0.092 -4.09636,-1.9e-4 -3.91297,-0.0119 -4.13044,0.26454 -0.0967,0.1229 -0.0985,0.16522 -0.0985,2.34768 0,2.4515 -0.0134,2.33908 0.30015,2.53024 0.14216,0.0867 0.28953,0.0901 3.9193,0.0901 3.65539,0 3.77622,-0.003 3.92224,-0.0919 z"
       id="path28084" />
    <text
       xml:space="preserve"
       style="font-size:3.52778px;font-family:sans-serif;-inkscape-font-specification:sans-serif;text-align:center;text-anchor:middle;fill:#ffffff;fill-opacity:1;stroke:none;stroke-width:0.237;stroke-dasharray:none;stroke-dashoffset:0;stroke-opacity:1"
       x="151.17534"
       y="123.89555"
       id="text29214"><tspan
         sodipodi:role="line"
         id="tspan29212"
         style="font-size:3.52778px;fill:#000000;fill-opacity:1;stroke-width:0.237;font-weight:bold"
         x="151.17534"
         y="123.89555">Client</tspan></text>
    <path
       style="fill:#ffffff;fill-opacity:1;stroke:#494949;stroke-width:0.244422;stroke-dasharray:0.977688, 0.244422;stroke-dashoffset:0;stroke-opacity:1;marker-start:url(#Arrow2-3)"
       d="m 92.462549,123.44 c 4.680017,-0.29906 6.855183,-7.0367 13.416591,-7.0914"
       id="path33494-9"
       sodipodi:nodetypes="cc" />
    <rect
       style="fill:#ffffff;fill-opacity:1;stroke:#000000;stroke-width:0.293725;stroke-opacity:1"
       id="rect3769-6-8-9"
       width="35.162201"
       height="18.718702"
       x="54.847839"
       y="117.82087"
       ry="2.8650508" />
    <path
       style="fill:#ffffff;fill-opacity:1;stroke:#494949;stroke-width:0.244422;stroke-dasharray:0.977688, 0.244422;stroke-dashoffset:0;stroke-opacity:1;marker-start:url(#Arrow2-3-4)"
       d="m 92.542243,128.30805 c 3.510993,-0.26987 6.714154,-11.20679 13.401497,-11.34537"
       id="path33494-9-8"
       sodipodi:nodetypes="cc" />
    <rect
       style="fill:#ffffff;fill-opacity:1;stroke:#000000;stroke-width:0.293725;stroke-opacity:1"
       id="rect3769-6-8"
       width="35.162201"
       height="18.718702"
       x="54.138447"
       y="117.22433"
       ry="2.8650508" />
    <rect
       style="fill:#ffffff;fill-opacity:1;stroke:#000000;stroke-width:0.293725;stroke-opacity:1"
       id="rect3769-6"
       width="35.162201"
       height="18.718702"
       x="53.452412"
       y="116.71774"
       ry="2.8650508" />
    <rect
       style="fill:#ffffff;fill-opacity:1;stroke:#000000;stroke-width:0.192222;stroke-dasharray:0.576666, 0.576666;stroke-dashoffset:0;stroke-opacity:1"
       id="rect6810-1"
       width="17.184521"
       height="9.7456226"
       x="55.140385"
       y="118.55076" />
    <rect
       style="fill:#666666;fill-opacity:1;stroke:#000000;stroke-width:0.198442;stroke-dasharray:none;stroke-dashoffset:0;stroke-opacity:1"
       id="rect6810-3-8"
       width="11.807064"
       height="6.146194"
       x="74.20192"
       y="118.41307" />
    <path
       style="fill:#000000;fill-opacity:1;stroke:#494949;stroke-width:0.189885;stroke-dasharray:0.56965502,0.56965502;stroke-dashoffset:0;stroke-opacity:1"
       d="m 63.198931,131.09311 9.433559,0"
       id="path21824-5"
       sodipodi:nodetypes="cc" />
    <rect
       style="fill:#000000;fill-opacity:1;stroke:#000000;stroke-width:0.209838;stroke-dasharray:none;stroke-dashoffset:0;stroke-opacity:1"
       id="rect6810-3-8-2"
       width="14.291697"
       height="5.6776209"
       x="73.393074"
       y="127.67297"
       ry="0.69071901" />
    <text
       xml:space="preserve"
       style="font-size:3.52777px;font-family:sans-serif;-inkscape-font-specification:sans-serif;text-align:end;text-anchor:end;fill:#ffffff;fill-opacity:1;stroke:#000000;stroke-width:0.219;stroke-opacity:1"
       x="63.612438"
       y="122.62368"
       id="text6814-7"><tspan
         sodipodi:role="line"
         id="tspan6812-9"
         style="text-align:center;text-anchor:middle;fill:#000000;fill-opacity:1;stroke:none;stroke-width:0.219"
         x="63.612438"
         y="122.62368">P4Mite </tspan><tspan
         sodipodi:role="line"
         style="text-align:center;text-anchor:middle;fill:#000000;fill-opacity:1;stroke:none;stroke-width:0.219"
         x="63.612438"
         y="127.03339"
         id="tspan6816-2">Agent</tspan></text>
    <text
       xml:space="preserve"
       style="font-size:3.52777px;font-family:sans-serif;-inkscape-font-specification:sans-serif;text-align:center;text-anchor:middle;fill:#000000;fill-opacity:1;stroke:none;stroke-width:0.206;stroke-dasharray:0.618001, 0.618001;stroke-dashoffset:0;stroke-opacity:1"
       x="80.167183"
       y="122.45294"
       id="text11472-2"><tspan
         sodipodi:role="line"
         id="tspan11470-3"
         style="fill:#ffffff;stroke-width:0.206"
         x="80.167183"
         y="122.45294">App</tspan></text>
    <path
       style="fill:#000000;fill-opacity:1;stroke:#494949;stroke-width:0.195223;stroke-dasharray:0.58566901,0.58566901;stroke-dashoffset:0;stroke-opacity:1"
       d="m 63.284153,128.56461 v 2.63006"
       id="path21820-7" />
    <text
       xml:space="preserve"
       style="font-size:2.11667px;font-family:sans-serif;-inkscape-font-specification:sans-serif;text-align:center;text-anchor:middle;fill:#000000;fill-opacity:1;stroke:#000000;stroke-width:0.206;stroke-dasharray:none;stroke-dashoffset:0;stroke-opacity:1"
       x="63.661709"
       y="133.22218"
       id="text22554-9"><tspan
         sodipodi:role="line"
         id="tspan22552-2"
         style="font-style:italic;font-size:2.11667px;stroke:none;stroke-width:0.206"
         x="63.661709"
         y="133.22218">Monitoring</tspan></text>
    <text
       xml:space="preserve"
       style="font-size:2.11667px;font-family:sans-serif;-inkscape-font-specification:sans-serif;text-align:center;text-anchor:middle;fill:#000000;fill-opacity:1;stroke:#000000;stroke-width:0.206;stroke-dasharray:none;stroke-dashoffset:0;stroke-opacity:1"
       x="102.18253"
       y="128.75235"
       id="text22554-9-4"><tspan
         sodipodi:role="line"
         style="font-style:italic;font-weight:bold;font-size:2.11667px;stroke:none;stroke-width:0.206"
         x="102.18253"
         y="128.75235"
         id="tspan34923">Balance the </tspan><tspan
         sodipodi:role="line"
         style="font-style:italic;font-weight:bold;font-size:2.11667px;stroke:none;stroke-width:0.206"
         x="102.18253"
         y="131.39819"
         id="tspan34927">Load</tspan></text>
    <text
       xml:space="preserve"
       style="font-size:2.11667px;font-family:sans-serif;-inkscape-font-specification:sans-serif;text-align:center;text-anchor:middle;fill:#000000;fill-opacity:1;stroke:none;stroke-width:0.237;stroke-dasharray:none;stroke-dashoffset:0;stroke-opacity:1"
       x="80.486336"
       y="131.18135"
       id="text30114"><tspan
         sodipodi:role="line"
         id="tspan30112"
         style="font-weight:bold;fill:#ffffff;fill-opacity:1;stroke-width:0.237"
         x="80.486336"
         y="131.18135">Accelerator</tspan></text>
    <path
       style="fill:#ffffff;fill-opacity:1;stroke:#494949;stroke-width:0.237;stroke-dasharray:0.948, 0.237;stroke-dashoffset:0;stroke-opacity:1;marker-start:url(#Arrow2-0)"
       d="m 133.61513,115.77211 11.7283,0.0227"
       id="path33494-6"
       sodipodi:nodetypes="cc" />
    <text
       xml:space="preserve"
       style="font-size:3.52778px;font-family:sans-serif;-inkscape-font-specification:sans-serif;text-align:center;text-anchor:middle;fill:none;fill-opacity:1;stroke:#494949;stroke-width:0.237;stroke-dasharray:0.947999, 0.237;stroke-dashoffset:0;stroke-opacity:1"
       x="125.60783"
       y="94.069901"
       id="text38958"><tspan
         sodipodi:role="line"
         id="tspan38956"
         style="font-size:3.52778px;fill:#000000;fill-opacity:1;stroke:none;stroke-width:0.237;stroke-opacity:1;font-weight:bold"
         x="125.60783"
         y="94.069901">P4mite </tspan><tspan
         sodipodi:role="line"
         style="font-size:3.52778px;fill:#000000;fill-opacity:1;stroke:none;stroke-width:0.237;stroke-opacity:1;font-weight:bold"
         x="125.60783"
         y="98.479622"
         id="tspan38960">Controller</tspan></text>
    <path
       style="fill:#000000;fill-opacity:1;stroke:#000000;stroke-width:0.237;stroke-dasharray:none;stroke-dashoffset:0;stroke-opacity:1;marker-end:url(#Arrow2-0)"
       d="m 122.52099,99.901403 -0.0468,5.910417"
       id="path42058"
       sodipodi:nodetypes="cc" />
    <text
       xml:space="preserve"
       style="font-size:2.11667px;font-family:sans-serif;-inkscape-font-specification:sans-serif;text-align:center;text-anchor:middle;fill:#000000;fill-opacity:1;stroke:#000000;stroke-width:0.237;stroke-dasharray:0.947999, 0.237;stroke-dashoffset:0;stroke-opacity:1"
       x="123.81399"
       y="102.62878"
       id="text42952"><tspan
         sodipodi:role="line"
         id="tspan42950"
         style="font-style:italic;font-weight:bold;font-size:2.11667px;text-align:start;text-anchor:start;fill:#000000;fill-opacity:1;stroke:none;stroke-width:0.237"
         x="123.81399"
         y="102.62878">LB</tspan><tspan
         sodipodi:role="line"
         style="font-style:italic;font-weight:bold;font-size:2.11667px;text-align:start;text-anchor:start;fill:#000000;fill-opacity:1;stroke:none;stroke-width:0.237"
         x="123.81399"
         y="105.27461"
         id="tspan42954">Parameters</tspan></text>
    <text
       xml:space="preserve"
       style="font-size:2.11667px;font-family:sans-serif;-inkscape-font-specification:sans-serif;text-align:center;text-anchor:middle;fill:#000000;fill-opacity:1;stroke:#000000;stroke-width:0.237;stroke-dasharray:0.947999, 0.237;stroke-dashoffset:0;stroke-opacity:1"
       x="133.94084"
       y="113.76289"
       id="text42952-2"><tspan
         sodipodi:role="line"
         style="font-style:italic;font-weight:bold;font-size:2.11667px;text-align:start;text-anchor:start;fill:#000000;fill-opacity:1;stroke:none;stroke-width:0.237"
         x="133.94084"
         y="113.76289"
         id="tspan42954-6">Request</tspan></text>
    <path
       style="fill:#000000;fill-opacity:1;stroke:none;stroke-width:0.237;stroke-dasharray:none;stroke-dashoffset:0;stroke-opacity:1"
       d="M 54.847463,103.78227 H 46.032017"
       id="path44540" />
    <path
       style="fill:none;fill-opacity:1;stroke:#444444;stroke-width:0.236;stroke-dasharray:none;stroke-dashoffset:0;stroke-opacity:1;marker-end:url(#Arrow2-3)"
       d="m 64.25066,98.634774 0.0076,-3.486682 0.0052,-1.905818 45.98531,-0.107315 -0.0321,15.456801"
       id="path44548"
       sodipodi:nodetypes="ccccc" />
    <path
       style="fill:none;fill-opacity:1;stroke:#444444;stroke-width:0.236;stroke-dasharray:none;stroke-dashoffset:0;stroke-opacity:1;marker-end:url(#Arrow2-3-0)"
       d="m 52.713938,126.78189 -4.64669,-0.0117 -0.03755,-36.314568 64.675182,-0.291921 -0.0333,18.453249"
       id="path44548-3"
       sodipodi:nodetypes="ccccc" />
    <text
       xml:space="preserve"
       style="font-size:2.11667px;font-family:sans-serif;-inkscape-font-specification:sans-serif;text-align:start;text-anchor:start;fill:#000000;fill-opacity:1;stroke:#444444;stroke-width:0.205;stroke-dasharray:none;stroke-dashoffset:0;stroke-opacity:1"
       x="73.159065"
       y="88.946457"
       id="text46743"><tspan
         sodipodi:role="line"
         id="tspan46741"
         style="font-style:italic;font-weight:bold;stroke:none;stroke-width:0.205"
         x="73.159065"
         y="88.946457">Resource Report</tspan></text>
  </g>
</svg>
